<svg width="48" height="49" viewBox="0 0 48 49" fill="none" xmlns="http://www.w3.org/2000/svg">
<g id="Frame" clip-path="url(#clip0_493_522)">
<g id="Group">
<path id="Vector" d="M24 0.542725C17.0213 0.542725 11.3438 6.22032 11.3438 13.199C11.3438 20.1776 17.0213 25.8552 24 25.8552C30.9787 25.8552 36.6562 20.1776 36.6562 13.199C36.6562 6.22032 30.9787 0.542725 24 0.542725ZM24 23.0427C18.5722 23.0427 14.1562 18.6268 14.1562 13.199C14.1562 7.77113 18.5722 3.35522 24 3.35522C29.4278 3.35522 33.8438 7.77113 33.8438 13.199C33.8438 18.6268 29.4278 23.0427 24 23.0427ZM39.7468 34.1235C36.2818 30.6053 31.6883 28.6677 26.8125 28.6677H21.1875C16.3118 28.6677 11.7182 30.6053 8.25319 34.1235C4.80516 37.6245 2.90625 42.2458 2.90625 47.1365C2.90625 47.9131 3.53587 48.5427 4.3125 48.5427H43.6875C44.4641 48.5427 45.0938 47.9131 45.0938 47.1365C45.0938 42.2458 43.1948 37.6245 39.7468 34.1235ZM5.78062 45.7302C6.48516 37.7534 13.126 31.4802 21.1875 31.4802H26.8125C34.874 31.4802 41.5148 37.7534 42.2194 45.7302H5.78062Z" fill="#3671E9"/>
</g>
</g>
<defs>
<clipPath id="clip0_493_522">
<rect width="48" height="48" fill="#3671E9" transform="translate(0 0.542725)"/>
</clipPath>
</defs>
</svg>
