<svg width="48" height="49" viewBox="0 0 48 49" fill="none" xmlns="http://www.w3.org/2000/svg">
<g id="Frame" clip-path="url(#clip0_493_533)">
<g id="Group">
<path id="Vector" d="M45.8175 25.0367V18.2904C45.8175 16.0028 44.0431 14.1424 41.8012 13.962L35.5361 3.01897C34.9555 2.0069 34.018 1.28353 32.8962 0.983163C31.7797 0.684839 30.6122 0.841518 29.6129 1.42313L8.13566 13.9268H4.3636C1.95706 13.9268 0 15.8837 0 18.2904V44.4718C0 46.8783 1.95696 48.8354 4.3636 48.8354H41.4539C43.8605 48.8354 45.8175 46.8784 45.8175 44.4718V37.7255C47.0846 37.2736 47.9993 36.0741 47.9993 34.6538V28.1084C47.9993 26.6881 47.0846 25.4885 45.8175 25.0367ZM39.266 13.9268H29.7578L36.8891 9.775L39.266 13.9268ZM35.8051 7.88165L25.4216 13.9268H21.1147L34.7282 6.00079L35.8051 7.88165ZM30.7112 3.3087C31.2044 3.01999 31.7807 2.94329 32.3316 3.09036C32.8887 3.23947 33.3532 3.59956 33.642 4.10345L33.6442 4.10744L16.7787 13.9268H12.472L30.7112 3.3087ZM43.6357 44.4718C43.6357 45.6745 42.6566 46.6535 41.4539 46.6535H4.3636C3.16089 46.6535 2.18185 45.6745 2.18185 44.4718V18.2904C2.18185 17.0877 3.16089 16.1086 4.3636 16.1086H41.4539C42.6566 16.1086 43.6357 17.0877 43.6357 18.2904V24.8357H37.0903C33.481 24.8357 30.545 27.7717 30.545 31.3811C30.545 34.9904 33.481 37.9264 37.0903 37.9264H43.6357V44.4718ZM45.8175 34.6538C45.8175 35.2556 45.3286 35.7447 44.7266 35.7447H37.0903C34.6838 35.7447 32.7267 33.7877 32.7267 31.3811C32.7267 28.9745 34.6837 27.0175 37.0903 27.0175H44.7266C45.3285 27.0175 45.8175 27.5064 45.8175 28.1084V34.6538Z" fill="#3671E9"/>
<path id="Vector_2" d="M37.09 29.1993C35.8872 29.1993 34.9082 30.1783 34.9082 31.381C34.9082 32.5837 35.8872 33.5628 37.09 33.5628C38.2927 33.5628 39.2717 32.5837 39.2717 31.381C39.2718 30.1783 38.2928 29.1993 37.09 29.1993Z" fill="#3671E9"/>
</g>
</g>
<defs>
<clipPath id="clip0_493_533">
<rect width="48" height="48" fill="white" transform="translate(0 0.835388)"/>
</clipPath>
</defs>
</svg>
