<svg width="47" height="44" viewBox="0 0 47 44" fill="none" xmlns="http://www.w3.org/2000/svg">
<g id="Group">
<path id="Vector" d="M46.3744 33.472C45.8672 31.5773 43.8975 30.4261 41.8903 30.847L27.9009 33.817C28.1762 33.0603 28.1767 32.231 27.9026 31.4739C27.6284 30.7168 27.0969 30.0801 26.4009 29.6751L18.2916 24.9923C17.9661 24.7891 17.6604 24.5559 17.3784 24.2958C16.6659 23.6798 15.7791 22.9139 14.1262 22.7376C12.5559 22.5708 10.5122 22.9392 7.75125 23.8945C7.65909 23.309 7.36111 22.7756 6.91088 22.3902C6.46064 22.0047 5.88769 21.7925 5.295 21.7917H2.48625C1.82708 21.7924 1.19513 22.0546 0.729028 22.5207C0.262927 22.9868 0.0007444 23.6188 0 24.2779V38.0976C0.0007444 38.7568 0.262927 39.3888 0.729028 39.8549C1.19513 40.321 1.82708 40.5831 2.48625 40.5839H5.28656C5.93881 40.583 6.56465 40.3261 7.02943 39.8685C7.49422 39.4109 7.76082 38.7892 7.77187 38.137C10.0087 37.8229 12.8503 39.4448 15.6047 41.0179C17.9784 42.3736 20.2416 43.6664 22.1325 43.6664C22.4882 43.6693 22.8423 43.6178 23.1825 43.5136L43.7625 37.9992C44.7089 37.7448 45.5157 37.1251 46.0054 36.2762C46.4952 35.4273 46.6279 34.4187 46.3744 33.472ZM5.28656 39.0839H2.48625C2.22476 39.0836 1.97404 38.9797 1.78914 38.7947C1.60424 38.6098 1.50025 38.3591 1.5 38.0976V24.2779C1.50025 24.0165 1.60424 23.7657 1.78914 23.5808C1.97404 23.3959 2.22476 23.2919 2.48625 23.2917H5.28656C5.54806 23.2919 5.79877 23.3959 5.98367 23.5808C6.16858 23.7657 6.27256 24.0165 6.27281 24.2779V38.0976C6.27256 38.3591 6.16858 38.6098 5.98367 38.7947C5.79877 38.9797 5.54806 39.0836 5.28656 39.0839ZM43.3744 36.5526L22.7812 42.0689L22.7466 42.0792C21.3 42.5414 18.7837 41.1051 16.3509 39.7158C13.4512 38.0583 10.4625 36.3539 7.77562 36.622V25.4742C13.9022 23.2767 15.1697 24.3708 16.4006 25.4301C16.7531 25.7536 17.1362 26.0422 17.5444 26.2917L25.6537 30.9736C25.8727 31.1006 26.0645 31.2696 26.2182 31.4707C26.3718 31.6719 26.4844 31.9014 26.5494 32.1461C26.6144 32.3907 26.6305 32.6458 26.5969 32.8967C26.5633 33.1476 26.4806 33.3895 26.3536 33.6084C26.2265 33.8274 26.0576 34.0192 25.8564 34.1728C25.6553 34.3265 25.4258 34.439 25.1811 34.504C24.9364 34.569 24.6814 34.5852 24.4305 34.5516C24.1795 34.518 23.9377 34.4353 23.7187 34.3083L16.9481 30.3998C16.7763 30.3065 16.5749 30.284 16.3867 30.3371C16.1986 30.3901 16.0386 30.5145 15.9408 30.6838C15.843 30.8531 15.8152 31.0538 15.8633 31.2433C15.9113 31.4328 16.0315 31.5961 16.1981 31.6983L22.9687 35.6076C23.4876 35.9079 24.0765 36.0661 24.6759 36.0661C25.2139 36.0653 25.7443 35.9388 26.2247 35.6967C26.26 35.6943 26.295 35.6896 26.3297 35.6826L42.1978 32.3226C43.4456 32.0583 44.6166 32.7211 44.9231 33.8639C45.0728 34.4254 44.9938 35.0233 44.7035 35.5267C44.4132 36.0302 43.9353 36.398 43.3744 36.5498V36.5526ZM5.13656 26.0001C5.1373 26.2477 5.06456 26.4899 4.92755 26.6961C4.79054 26.9022 4.59543 27.0631 4.36692 27.1583C4.13841 27.2535 3.88678 27.2788 3.64391 27.2309C3.40104 27.183 3.17786 27.0641 3.00261 26.8892C2.82737 26.7144 2.70796 26.4914 2.65951 26.2487C2.61105 26.0059 2.63574 25.7542 2.73042 25.5255C2.82511 25.2968 2.98555 25.1013 3.19142 24.9638C3.39729 24.8264 3.63933 24.7531 3.88687 24.7533C4.2176 24.754 4.53461 24.8855 4.76873 25.1191C5.00285 25.3527 5.13508 25.6694 5.13656 26.0001ZM19.9434 17.7604H21.2128C21.4644 18.6646 21.8251 19.5348 22.2872 20.3517L21.39 21.2498C21.1546 21.4821 21.0119 21.7923 20.9886 22.1222C20.9653 22.4521 21.063 22.7792 21.2634 23.0423C22.0569 24.0951 22.9938 25.0317 24.0469 25.8248C24.3097 26.0258 24.6368 26.1239 24.9669 26.1007C25.2969 26.0776 25.6071 25.9348 25.8394 25.6992L26.7375 24.802C27.5543 25.2642 28.424 25.6255 29.3278 25.8783V27.1476C29.3258 27.4784 29.4445 27.7985 29.6616 28.0481C29.8787 28.2976 30.1793 28.4595 30.5072 28.5033C31.8132 28.6872 33.1386 28.6872 34.4447 28.5033C34.773 28.4596 35.0742 28.2976 35.2915 28.0477C35.5088 27.7977 35.6274 27.477 35.625 27.1458V25.8783C36.5291 25.6264 37.3992 25.2656 38.2162 24.8039L39.1134 25.7011C39.3457 25.9367 39.6559 26.0795 39.9859 26.1026C40.316 26.1257 40.6431 26.0276 40.9059 25.8267C41.9587 25.0331 42.895 24.0959 43.6875 23.0423C43.888 22.7793 43.9859 22.4523 43.9628 22.1224C43.9397 21.7925 43.7971 21.4823 43.5619 21.2498L42.6637 20.3517C43.1259 19.5352 43.4866 18.6653 43.7381 17.7614H45.0084C45.3393 17.7636 45.6595 17.645 45.9091 17.4278C46.1587 17.2107 46.3205 16.91 46.3641 16.582C46.548 15.276 46.548 13.9506 46.3641 12.6445C46.3202 12.3167 46.1584 12.0162 45.9088 11.7993C45.6592 11.5823 45.3391 11.4638 45.0084 11.4661H43.7372C43.4851 10.5619 43.1241 9.69177 42.6619 8.87482L43.56 7.97763C43.794 7.74574 43.936 7.43678 43.9594 7.10815C43.9829 6.77951 43.8862 6.45354 43.6875 6.19076C42.8946 5.13721 41.9576 4.20024 40.9041 3.40732C40.6412 3.2064 40.3141 3.10829 39.9841 3.13142C39.654 3.15455 39.3438 3.29732 39.1116 3.53295L38.2144 4.43107C37.3981 3.96789 36.5286 3.60555 35.625 3.35201V2.08264C35.6273 1.75185 35.5088 1.4316 35.2919 1.18187C35.075 0.932149 34.7744 0.770094 34.4466 0.726073C33.1404 0.544109 31.8153 0.544109 30.5091 0.726073C30.1813 0.770286 29.8809 0.932396 29.664 1.18208C29.4471 1.43176 29.3286 1.75191 29.3306 2.08264V3.35201C28.4259 3.60401 27.5551 3.96509 26.7375 4.42732L25.8394 3.5292C25.6069 3.29394 25.2967 3.15142 24.9668 3.12829C24.6369 3.10517 24.3099 3.20303 24.0469 3.40357C22.9931 4.19764 22.0561 5.13588 21.2634 6.19076C21.0628 6.45378 20.965 6.78093 20.9883 7.1109C21.0116 7.44088 21.1544 7.75104 21.39 7.98326L22.2872 8.88045C21.8249 9.69726 21.4641 10.5674 21.2128 11.4717H19.9434C19.6127 11.4694 19.2924 11.5879 19.0427 11.8048C18.7929 12.0217 18.6309 12.3223 18.5869 12.6501C18.4029 13.9562 18.4029 15.2816 18.5869 16.5876C18.632 16.9145 18.7945 17.2139 19.0441 17.4297C19.2938 17.6455 19.6134 17.7631 19.9434 17.7604ZM20.0569 12.9679H21.7969C21.9675 12.968 22.133 12.9099 22.2661 12.8032C22.3992 12.6965 22.492 12.5476 22.5291 12.3811C22.7846 11.2389 23.2363 10.1496 23.8641 9.1617C23.9553 9.01776 23.9948 8.84704 23.9761 8.67766C23.9573 8.50828 23.8814 8.35033 23.7609 8.22982L22.5309 6.99889C23.2016 6.12381 23.9846 5.34083 24.8597 4.67014L26.0897 5.90107C26.2103 6.0218 26.3684 6.09782 26.538 6.11657C26.7076 6.13532 26.8785 6.09568 27.0225 6.0042C28.0104 5.37646 29.0996 4.92477 30.2419 4.6692C30.4076 4.63205 30.5558 4.53977 30.6622 4.40744C30.7687 4.27511 30.827 4.11058 30.8278 3.94076V2.19607C31.921 2.05357 33.0281 2.05357 34.1212 2.19607V3.94076C34.1212 4.11135 34.1793 4.27686 34.286 4.40997C34.3927 4.54308 34.5416 4.63584 34.7081 4.67295C35.8498 4.92703 36.9387 5.37713 37.9266 6.00326C38.0706 6.09474 38.2415 6.13438 38.4111 6.11563C38.5807 6.09688 38.7388 6.02087 38.8594 5.90014L40.0903 4.6692C40.9649 5.34017 41.7475 6.12312 42.4181 6.99795L41.1881 8.22888C41.0676 8.34939 40.9917 8.50734 40.973 8.67672C40.9543 8.84611 40.9938 9.01682 41.085 9.16076C41.7128 10.1479 42.1645 11.2366 42.42 12.3783C42.4573 12.5446 42.5501 12.6933 42.6832 12.7998C42.8163 12.9063 42.9817 12.9643 43.1522 12.9642H44.8922C45.0359 14.0573 45.0359 15.1645 44.8922 16.2576H43.1512C42.9809 16.2578 42.8158 16.3159 42.6829 16.4223C42.55 16.5288 42.4573 16.6774 42.42 16.8436C42.1647 17.9868 41.713 19.077 41.085 20.0658C40.9938 20.2097 40.9543 20.3804 40.973 20.5498C40.9917 20.7192 41.0676 20.8771 41.1881 20.9976L42.4191 22.2286C41.7479 23.1032 40.9649 23.8861 40.0903 24.5573L38.8594 23.3273C38.7388 23.207 38.5807 23.1313 38.4114 23.1127C38.242 23.0941 38.0713 23.1338 37.9275 23.2251C36.9394 23.8531 35.8498 24.3048 34.7072 24.5601C34.541 24.5974 34.3925 24.6901 34.286 24.823C34.1795 24.9559 34.1214 25.1211 34.1212 25.2914V27.0323C33.0281 27.1748 31.921 27.1748 30.8278 27.0323V25.2914C30.8279 25.1209 30.7699 24.9555 30.6634 24.8224C30.5569 24.6893 30.4082 24.5965 30.2419 24.5592C29.0993 24.3047 28.0099 23.8529 27.0225 23.2242C26.8785 23.1327 26.7076 23.0931 26.538 23.1118C26.3684 23.1306 26.2103 23.2066 26.0897 23.3273L24.8597 24.5583C23.9846 23.8876 23.2016 23.1046 22.5309 22.2295L23.7609 21.0033C23.8814 20.8828 23.9573 20.7248 23.9761 20.5554C23.9948 20.386 23.9553 20.2153 23.8641 20.0714C23.2361 19.0836 22.7844 17.9943 22.5291 16.852C22.492 16.6855 22.3992 16.5366 22.2661 16.4299C22.133 16.3232 21.9675 16.2651 21.7969 16.2651H20.0569C19.9131 15.1723 19.9131 14.0654 20.0569 12.9726V12.9679ZM32.475 22.1283C33.9604 22.1283 35.4124 21.6878 36.6475 20.8625C37.8826 20.0373 38.8452 18.8643 39.4136 17.492C39.9821 16.1197 40.1308 14.6096 39.841 13.1528C39.5512 11.6959 38.8359 10.3577 37.7856 9.30735C36.7353 8.25702 35.397 7.54173 33.9402 7.25194C32.4833 6.96216 30.9733 7.11089 29.6009 7.67932C28.2286 8.24776 27.0556 9.21038 26.2304 10.4454C25.4052 11.6805 24.9647 13.1325 24.9647 14.6179C24.9669 16.6091 25.7589 18.5181 27.1669 19.9261C28.5748 21.334 30.4838 22.126 32.475 22.1283ZM32.475 8.60764C33.6637 8.60763 34.8258 8.96013 35.8141 9.62055C36.8025 10.281 37.5729 11.2197 38.0278 12.3179C38.4827 13.4161 38.6017 14.6246 38.3698 15.7905C38.1379 16.9564 37.5655 18.0273 36.7249 18.8679C35.8844 19.7084 34.8134 20.2809 33.6475 20.5128C32.4817 20.7447 31.2732 20.6257 30.1749 20.1708C29.0767 19.7158 28.138 18.9455 27.4776 17.9571C26.8172 16.9687 26.4647 15.8067 26.4647 14.6179C26.4654 13.0238 27.0988 11.4951 28.2257 10.3675C29.3525 9.23992 30.8808 8.60562 32.475 8.60388V8.60764ZM29.3559 15.3276C29.2863 15.258 29.2311 15.1752 29.1934 15.0842C29.1558 14.9932 29.1364 14.8957 29.1365 14.7971C29.1365 14.6986 29.156 14.6011 29.1937 14.5101C29.2314 14.4191 29.2867 14.3365 29.3564 14.2669C29.4261 14.1972 29.5088 14.142 29.5998 14.1044C29.6908 14.0667 29.7884 14.0473 29.8869 14.0474C29.9854 14.0474 30.0829 14.0669 30.1739 14.1046C30.2649 14.1424 30.3476 14.1976 30.4172 14.2673L31.6219 15.472L34.5 12.1692C34.6349 12.036 34.8152 11.9589 35.0047 11.9533C35.1942 11.9477 35.3787 12.014 35.5213 12.139C35.6638 12.264 35.7537 12.4383 35.773 12.6268C35.7922 12.8154 35.7394 13.0043 35.625 13.1554L32.2219 17.0592C32.1543 17.1368 32.0715 17.1996 31.9786 17.2438C31.8857 17.288 31.7847 17.3126 31.6819 17.3161H31.6566C31.558 17.3162 31.4605 17.2968 31.3694 17.2592C31.2784 17.2215 31.1956 17.1663 31.1259 17.0967L29.3559 15.3276Z" fill="#3671E9"/>
</g>
</svg>
