<svg width="48" height="49" viewBox="0 0 48 49" fill="none" xmlns="http://www.w3.org/2000/svg">
<g id="Frame" clip-path="url(#clip0_493_556)">
<g id="Group">
<path id="Vector" d="M34.3125 37.5458C33.795 37.5458 33.375 37.9658 33.375 38.4833C33.375 39.0008 33.795 39.4208 34.3125 39.4208C34.83 39.4208 35.25 39.0008 35.25 38.4833C35.25 37.9658 34.83 37.5458 34.3125 37.5458Z" fill="#3671E9"/>
<path id="Vector_2" d="M36.6208 34.5142L32.1649 33.0292L30.5652 29.8298C32.0063 28.363 33.0069 26.4222 33.3443 24.3978L33.5438 23.202H35.25C36.8008 23.202 38.0625 21.9403 38.0625 20.3895V14.4833C38.0625 6.72921 31.7541 0.420776 24 0.420776C16.2261 0.420776 9.9375 6.71112 9.9375 14.4833V20.3895C9.9375 21.6117 10.7213 22.6538 11.8125 23.0408V24.1395C11.8125 25.6903 13.0742 26.952 14.625 26.952H15.4483C15.8535 27.8346 16.3831 28.6546 17.0209 29.3871C17.1539 29.5395 17.2917 29.6877 17.4339 29.8316L15.8351 33.0292L11.3791 34.5143C6.198 36.2419 2.4375 41.6962 2.4375 47.4833C2.4375 48.0011 2.85722 48.4208 3.375 48.4208H44.625C45.1427 48.4208 45.5625 48.0011 45.5625 47.4833C45.5625 41.6962 41.8021 36.2419 36.6208 34.5142ZM36.1875 20.3895C36.1875 20.9065 35.7669 21.327 35.25 21.327H33.8192C34.0575 19.4811 34.2163 17.5167 34.2802 15.582C34.282 15.5275 34.2835 15.4744 34.2852 15.4208H36.1875V20.3895ZM12.75 21.327C12.2331 21.327 11.8125 20.9065 11.8125 20.3895V15.4208H13.7154C13.7185 15.5186 13.7218 15.6168 13.7255 15.7157L13.7258 15.7257V15.7266C13.7915 17.6083 13.9482 19.5217 14.1811 21.3269H12.75V21.327ZM14.625 25.077C14.1081 25.077 13.6875 24.6565 13.6875 24.1395V23.202H14.4561L14.6556 24.3982C14.6939 24.626 14.7403 24.8524 14.7945 25.077H14.625ZM13.6891 13.5458H11.8481C12.323 7.26256 17.5666 2.29578 24 2.29578C30.4048 2.29578 35.6715 7.2619 36.1518 13.5458H34.311C34.2435 8.36825 30.0273 4.17078 24.8392 4.17078H23.161C17.973 4.17078 13.7565 8.36825 13.6891 13.5458ZM23.1609 6.04578H24.8391C29.0399 6.04578 32.4399 9.48181 32.4375 13.678C32.4375 13.973 32.4352 14.2299 32.4302 14.4636L32.4301 14.4728L31.2575 14.3052C28.0718 13.8504 25.064 12.3464 22.7879 10.0704C22.6121 9.89458 22.3736 9.79581 22.125 9.79578C19.6073 9.79578 17.1971 10.9429 15.6039 12.8809C15.9966 9.0635 19.2237 6.04578 23.1609 6.04578ZM16.7381 25.077C16.2688 23.5158 15.7318 18.9221 15.6131 15.9783L16.8749 14.2959C18.0337 12.7512 19.8367 11.7915 21.7545 11.6814C24.278 14.0829 27.5425 15.6687 30.9923 16.1613L32.3725 16.3586C32.2803 18.3165 32.0917 20.2813 31.8217 22.0884L31.8214 22.0902C31.7355 22.6712 31.6678 23.0451 31.4949 24.0894C30.9984 27.0673 28.7764 29.7603 25.843 30.4937C24.633 30.7951 23.3675 30.7951 22.1574 30.4937C20.3258 30.0358 18.6464 28.7685 17.5626 26.952H19.4738C19.8608 28.0432 20.9028 28.827 22.125 28.827H24C25.5539 28.827 26.8125 27.5685 26.8125 26.0145C26.8125 24.4637 25.5508 23.202 24 23.202H22.125C20.8756 23.202 19.8489 24.009 19.4722 25.077H16.7381ZM22.0462 32.391C22.6886 32.5267 23.3434 32.5953 24 32.5958C24.5129 32.5958 25.0259 32.5528 25.5331 32.4696L23.8765 34.2215L22.0462 32.391ZM22.5877 35.5844L19.6141 38.729C18.7949 37.1608 18.0933 35.5339 17.5151 33.8618L18.6318 31.6285L22.5877 35.5844ZM29.2093 31.3108L30.4847 33.8617C29.9066 35.5344 29.2049 37.1618 28.3854 38.7304L25.2028 35.5478L29.2093 31.3108ZM21.1875 26.0145C21.1875 25.4969 21.6073 25.077 22.125 25.077H24C24.5169 25.077 24.9375 25.4976 24.9375 26.0145C24.9375 26.5322 24.5176 26.952 24 26.952H22.125C21.6081 26.952 21.1875 26.5315 21.1875 26.0145ZM4.35 46.5458C4.72153 41.9015 7.81238 37.6801 11.9721 36.293L15.9184 34.9779C16.6423 36.9793 17.535 38.9157 18.5868 40.766L18.592 40.7755L18.5921 40.7757C19.3652 42.1339 20.2222 43.4427 21.1583 44.6943L22.3116 46.5458H4.35ZM24 45.7101L22.7286 43.6689C22.7143 43.646 22.6991 43.6238 22.683 43.6022C21.9235 42.5884 21.2183 41.535 20.5706 40.4464L23.914 36.9107L27.437 40.4337C26.7873 41.5268 26.0797 42.5844 25.3172 43.602C25.2712 43.6632 25.3364 43.5668 24 45.7101ZM25.6884 46.5458L26.8417 44.6944C27.785 43.4332 28.648 42.114 29.4258 40.7445C29.4305 40.7363 29.4349 40.7278 29.4396 40.7196L29.4412 40.7166C30.481 38.8812 31.3642 36.9615 32.0816 34.9779L36.0278 36.293C40.1876 37.6801 43.2785 41.9015 43.65 46.5458H25.6884Z" fill="#3671E9"/>
<path id="Vector_3" d="M40.8331 42.7518C40.2065 41.4977 39.2888 40.3836 38.1791 39.5299C37.7687 39.2141 37.1801 39.2908 36.8644 39.7013C36.5487 40.1117 36.6255 40.7003 37.0358 41.016C37.9221 41.6979 38.6551 42.5878 39.1556 43.5898C39.3874 44.0537 39.9509 44.2405 40.4132 44.0095C40.8764 43.7781 41.0643 43.215 40.8331 42.7518Z" fill="#3671E9"/>
</g>
</g>
<defs>
<clipPath id="clip0_493_556">
<rect width="48" height="48" fill="white" transform="translate(0 0.420776)"/>
</clipPath>
</defs>
</svg>
